<svg xmlns="http://www.w3.org/2000/svg" viewBox="0 0 512 512" width="512" height="512">
  <defs>
    <linearGradient id="bg" x1="0" y1="0" x2="0" y2="1">
      <stop offset="0" stop-color="#1b1435"/>
      <stop offset="1" stop-color="#0a0a12"/>
    </linearGradient>
    <linearGradient id="shieldFill" x1="0" y1="0" x2="0" y2="1">
      <stop offset="0" stop-color="#b3a0fb"/>
      <stop offset="0.55" stop-color="#7c5cf6"/>
      <stop offset="1" stop-color="#5b21b6"/>
    </linearGradient>
    <linearGradient id="shieldEdge" x1="0" y1="0" x2="0" y2="1">
      <stop offset="0" stop-color="#e9e2ff"/>
      <stop offset="1" stop-color="#8b5cf6"/>
    </linearGradient>
  </defs>

  <rect width="512" height="512" rx="112" fill="url(#bg)"/>

  <g transform="translate(102 86) scale(1.4)">
    <path d="M110 12 L198 44 L198 118 C198 178 158 214 110 232 C62 214 22 178 22 118 L22 44 Z"
      fill="url(#shieldFill)" stroke="url(#shieldEdge)" stroke-width="3"/>
    <path d="M110 12 L22 44 L22 118 C22 178 62 214 110 232 Z" fill="#000000" opacity="0.14"/>
    <path d="M110 12 L198 44 L198 70 C170 54 140 46 110 46 C80 46 50 54 22 70 L22 44 Z"
      fill="#ffffff" opacity="0.12"/>
    <path d="M110 78 L133 128 L110 116 L87 128 Z" fill="#ffffff" opacity="0.94"/>
    <circle cx="110" cy="150" r="9" fill="#ffffff" opacity="0.94"/>
  </g>
</svg>
